<mxfile host="app.diagrams.net" modified="2020-04-05T18:17:38.324Z" agent="5.0 (Windows)" etag="Ltr1lISv0_RkCKZ6M0Wd" version="12.9.6" type="github">
  <diagram id="AgFZ_wXdq1zzKfNrYFCv" name="Page-1">
    <mxGraphModel dx="2569" dy="1129" grid="1" gridSize="10" guides="1" tooltips="1" connect="1" arrows="1" fold="1" page="1" pageScale="1" pageWidth="850" pageHeight="1100" math="0" shadow="0">
      <root>
        <mxCell id="0" />
        <mxCell id="1" parent="0" />
        <mxCell id="6hKQdgpvXm7_suPGL8Qp-1" value="ERROR UTILITY FUNCTIONS" style="rounded=0;whiteSpace=wrap;html=1;fontColor=#FAFAFA;align=left;verticalAlign=top;" vertex="1" parent="1">
          <mxGeometry x="100" y="100" width="550" height="2180" as="geometry" />
        </mxCell>
        <mxCell id="6hKQdgpvXm7_suPGL8Qp-2" value="&lt;div&gt;CHECK FATAL ERROR&lt;br&gt;&lt;/div&gt;&lt;div&gt;&lt;br&gt;&lt;/div&gt;&lt;div&gt;func CheckFatalError (e error) { }&lt;/div&gt;&lt;div&gt;&lt;br&gt;&lt;/div&gt;&lt;div&gt;--Checks the error and if there is any then create a fatal error to shutdown the system.&amp;nbsp; This is for essential components that would break the system if they were not functioning properly.&lt;br&gt;&lt;/div&gt;&lt;div&gt;&lt;br&gt;&lt;/div&gt;&lt;div&gt;&lt;pre style=&quot;background-color: #2b2b2b ; color: #a9b7c6 ; font-family: &amp;#34;consolas&amp;#34; ; font-size: 9.8pt&quot;&gt;&lt;span style=&quot;color: #c7773e&quot;&gt;func &lt;/span&gt;&lt;span style=&quot;color: #e6b163&quot;&gt;CheckFatalError&lt;/span&gt;(e &lt;span style=&quot;color: #c7773e&quot;&gt;error&lt;/span&gt;) {&lt;br&gt;   &lt;span style=&quot;color: #c7773e&quot;&gt;if &lt;/span&gt;e != &lt;span style=&quot;color: #c7773e&quot;&gt;nil &lt;/span&gt;{&lt;br&gt;      &lt;span style=&quot;color: #afbf7e&quot;&gt;log&lt;/span&gt;.&lt;span style=&quot;color: #b09d79&quot;&gt;Fatalln&lt;/span&gt;(e)&lt;br&gt;   }&lt;br&gt;}&lt;/pre&gt;&lt;/div&gt;" style="rounded=0;whiteSpace=wrap;html=1;fontColor=#FAFAFA;align=left;spacingLeft=8;fillColor=#032A06;" vertex="1" parent="1">
          <mxGeometry x="120" y="140" width="510" height="240" as="geometry" />
        </mxCell>
        <mxCell id="6hKQdgpvXm7_suPGL8Qp-3" value="&lt;div&gt;CHECK BASIC ERROR&lt;br&gt;&lt;/div&gt;&lt;div&gt;&lt;br&gt;&lt;/div&gt;&lt;div&gt;func CheckBasicError (e error) { }&lt;/div&gt;&lt;div&gt;&lt;br&gt;&lt;/div&gt;&lt;div&gt;--Checks for errors that don&#39;t need to be logged into the system, but do need caught to prompt an action.&lt;br&gt;&lt;/div&gt;&lt;div&gt;&lt;br&gt;&lt;/div&gt;&lt;div&gt;&lt;pre style=&quot;background-color: #2b2b2b ; color: #a9b7c6 ; font-family: &amp;#34;consolas&amp;#34; ; font-size: 9.8pt&quot;&gt;&lt;span style=&quot;color: #c7773e&quot;&gt;func &lt;/span&gt;&lt;span style=&quot;color: #e6b163&quot;&gt;CheckBasicError&lt;/span&gt;(e &lt;span style=&quot;color: #c7773e&quot;&gt;error&lt;/span&gt;) &lt;span style=&quot;color: #c7773e&quot;&gt;error &lt;/span&gt;{&lt;br&gt;   &lt;span style=&quot;color: #c7773e&quot;&gt;if &lt;/span&gt;e != &lt;span style=&quot;color: #c7773e&quot;&gt;nil &lt;/span&gt;{&lt;br&gt;      &lt;span style=&quot;color: #afbf7e&quot;&gt;log&lt;/span&gt;.&lt;span style=&quot;color: #b09d79&quot;&gt;Println&lt;/span&gt;(e)&lt;br&gt;      &lt;span style=&quot;color: #c7773e&quot;&gt;return &lt;/span&gt;&lt;span style=&quot;color: #afbf7e&quot;&gt;errors&lt;/span&gt;.&lt;span style=&quot;color: #b09d79&quot;&gt;New&lt;/span&gt;(e.&lt;span style=&quot;color: #c7773e&quot;&gt;Error&lt;/span&gt;())&lt;br&gt;   }&lt;br&gt;   &lt;span style=&quot;color: #c7773e&quot;&gt;return nil&lt;br&gt;&lt;/span&gt;}&lt;/pre&gt;&lt;/div&gt;" style="rounded=0;whiteSpace=wrap;html=1;fontColor=#FAFAFA;align=left;spacingLeft=8;fillColor=#032A06;" vertex="1" parent="1">
          <mxGeometry x="120" y="400" width="510" height="240" as="geometry" />
        </mxCell>
        <mxCell id="6hKQdgpvXm7_suPGL8Qp-4" value="&lt;div&gt;CHECK LOGGABLE ERROR&lt;br&gt;&lt;/div&gt;&lt;div&gt;&lt;br&gt;&lt;/div&gt;&lt;div&gt;func CheckLoggableError (e error)&amp;nbsp; error { }&lt;/div&gt;&lt;div&gt;&lt;br&gt;&lt;/div&gt;&lt;div&gt;--Checks for errors that do need to be logged for storage and troubleshooting.&amp;nbsp; Any fatal errors or other major errors should be stored here.&lt;br&gt;&lt;/div&gt;&lt;div&gt;&lt;br&gt;&lt;/div&gt;&lt;div&gt;&lt;pre style=&quot;background-color: #2b2b2b ; color: #a9b7c6 ; font-family: &amp;#34;consolas&amp;#34; ; font-size: 9.8pt&quot;&gt;&lt;span style=&quot;color: #c7773e&quot;&gt;func &lt;/span&gt;&lt;span style=&quot;color: #e6b163&quot;&gt;CheckLogError&lt;/span&gt;(e &lt;span style=&quot;color: #c7773e&quot;&gt;error&lt;/span&gt;) &lt;span style=&quot;color: #c7773e&quot;&gt;error &lt;/span&gt;{&lt;br&gt;   &lt;span style=&quot;color: #c7773e&quot;&gt;if &lt;/span&gt;e != &lt;span style=&quot;color: #c7773e&quot;&gt;nil &lt;/span&gt;{&lt;br&gt;      &lt;span style=&quot;color: #c7773e&quot;&gt;go &lt;/span&gt;security.LogsDatabase.AddLog(security.Log{Type: &lt;span style=&quot;color: #6a8759&quot;&gt;&quot;info&quot;&lt;/span&gt;&lt;span style=&quot;color: #cc7832&quot;&gt;,&lt;br&gt;&lt;/span&gt;&lt;span style=&quot;color: #cc7832&quot;&gt;               &lt;/span&gt;Date: &lt;span style=&quot;color: #afbf7e&quot;&gt;time&lt;/span&gt;.&lt;span style=&quot;color: #b09d79&quot;&gt;Now&lt;/span&gt;()&lt;span style=&quot;color: #cc7832&quot;&gt;, &lt;/span&gt;Memo: &lt;span style=&quot;color: #6a8759&quot;&gt;&quot;Email already Exists&quot;&lt;/span&gt;})&lt;br&gt;      &lt;span style=&quot;color: #c7773e&quot;&gt;return &lt;/span&gt;&lt;span style=&quot;color: #afbf7e&quot;&gt;errors&lt;/span&gt;.&lt;span style=&quot;color: #b09d79&quot;&gt;New&lt;/span&gt;(e.&lt;span style=&quot;color: #c7773e&quot;&gt;Error&lt;/span&gt;())&lt;br&gt;   }&lt;br&gt;   &lt;span style=&quot;color: #c7773e&quot;&gt;return nil&lt;br&gt;&lt;/span&gt;}&lt;/pre&gt;&lt;/div&gt;" style="rounded=0;whiteSpace=wrap;html=1;fontColor=#FAFAFA;align=left;spacingLeft=8;fillColor=#032A06;" vertex="1" parent="1">
          <mxGeometry x="120" y="660" width="510" height="280" as="geometry" />
        </mxCell>
        <mxCell id="6hKQdgpvXm7_suPGL8Qp-5" value="&lt;div&gt;CHECK COOKIE ERROR&lt;br&gt;&lt;/div&gt;&lt;div&gt;&lt;br&gt;&lt;/div&gt;&lt;div&gt;func CheckCookieError (e error, w http.ResponseWriter)&amp;nbsp; error { }&lt;/div&gt;&lt;div&gt;&lt;br&gt;&lt;/div&gt;&lt;div&gt;--Checks if a cookie request generated an error showing that the cookie doesn&#39;t exit and create a new one for the browser&lt;br&gt;&lt;/div&gt;&lt;div&gt;&lt;br&gt;&lt;/div&gt;&lt;div&gt;&lt;pre style=&quot;background-color: #2b2b2b ; color: #a9b7c6 ; font-family: &amp;#34;consolas&amp;#34; ; font-size: 9.8pt&quot;&gt;&lt;span style=&quot;color: #c7773e&quot;&gt;func &lt;/span&gt;&lt;span style=&quot;color: #e6b163&quot;&gt;CheckCookieError&lt;/span&gt;(e &lt;span style=&quot;color: #c7773e&quot;&gt;error&lt;/span&gt;&lt;span style=&quot;color: #cc7832&quot;&gt;, &lt;/span&gt;w &lt;span style=&quot;color: #afbf7e&quot;&gt;http&lt;/span&gt;.&lt;span style=&quot;color: #6fafbd&quot;&gt;ResponseWriter&lt;/span&gt;) &lt;span style=&quot;color: #c7773e&quot;&gt;error &lt;/span&gt;{&lt;br&gt;   &lt;span style=&quot;color: #c7773e&quot;&gt;if &lt;/span&gt;e != &lt;span style=&quot;color: #c7773e&quot;&gt;nil &lt;/span&gt;{&lt;br&gt;      sID := &lt;span style=&quot;color: #afbf7e&quot;&gt;uuid&lt;/span&gt;.&lt;span style=&quot;color: #b09d79&quot;&gt;NewV4&lt;/span&gt;()&lt;br&gt;      c := &amp;amp;&lt;span style=&quot;color: #afbf7e&quot;&gt;http&lt;/span&gt;.&lt;span style=&quot;color: #6fafbd&quot;&gt;Cookie&lt;/span&gt;{&lt;br&gt;         Name:     &lt;span style=&quot;color: #6a8759&quot;&gt;&quot;ssid&quot;&lt;/span&gt;&lt;span style=&quot;color: #cc7832&quot;&gt;,&lt;br&gt;&lt;/span&gt;&lt;span style=&quot;color: #cc7832&quot;&gt;         &lt;/span&gt;Value:    sID.&lt;span style=&quot;color: #b09d79&quot;&gt;String&lt;/span&gt;()&lt;span style=&quot;color: #cc7832&quot;&gt;,&lt;br&gt;&lt;/span&gt;&lt;span style=&quot;color: #cc7832&quot;&gt;         &lt;/span&gt;Secure:   &lt;span style=&quot;color: #c7773e&quot;&gt;false&lt;/span&gt;&lt;span style=&quot;color: #cc7832&quot;&gt;,&lt;br&gt;&lt;/span&gt;&lt;span style=&quot;color: #cc7832&quot;&gt;         &lt;/span&gt;HttpOnly: &lt;span style=&quot;color: #c7773e&quot;&gt;true&lt;/span&gt;&lt;span style=&quot;color: #cc7832&quot;&gt;,&lt;br&gt;&lt;/span&gt;&lt;span style=&quot;color: #cc7832&quot;&gt;      &lt;/span&gt;}&lt;br&gt;      &lt;span style=&quot;color: #afbf7e&quot;&gt;http&lt;/span&gt;.&lt;span style=&quot;color: #b09d79&quot;&gt;SetCookie&lt;/span&gt;(w&lt;span style=&quot;color: #cc7832&quot;&gt;, &lt;/span&gt;c)&lt;br&gt;      &lt;span style=&quot;color: #c7773e&quot;&gt;return &lt;/span&gt;&lt;span style=&quot;color: #afbf7e&quot;&gt;errors&lt;/span&gt;.&lt;span style=&quot;color: #b09d79&quot;&gt;New&lt;/span&gt;(&lt;span style=&quot;color: #6a8759&quot;&gt;&quot;No Cookie was found&quot;&lt;/span&gt;)&lt;br&gt;   }&lt;br&gt;   &lt;span style=&quot;color: #c7773e&quot;&gt;return nil&lt;br&gt;&lt;/span&gt;}&lt;/pre&gt;&lt;/div&gt;" style="rounded=0;whiteSpace=wrap;html=1;fontColor=#FAFAFA;align=left;spacingLeft=8;fillColor=#032A06;" vertex="1" parent="1">
          <mxGeometry x="120" y="960" width="510" height="360" as="geometry" />
        </mxCell>
        <mxCell id="6hKQdgpvXm7_suPGL8Qp-6" value="Perhaps every function should return an &#39;error&#39; type and use nil or !nil conditions to determine the success.&amp;nbsp; That way we can use these functions as methods for a type rather than floating functions." style="rounded=0;whiteSpace=wrap;html=1;fontColor=#FAFAFA;align=left;spacingLeft=8;fillColor=#032A06;" vertex="1" parent="1">
          <mxGeometry x="-480" y="160" width="510" height="240" as="geometry" />
        </mxCell>
      </root>
    </mxGraphModel>
  </diagram>
</mxfile>
